<?xml version="1.0" standalone="no"?>
<!DOCTYPE svg PUBLIC "-//W3C//DTD SVG 1.1//EN" "http://www.w3.org/Graphics/SVG/1.1/DTD/svg11.dtd" >
<svg xmlns="http://www.w3.org/2000/svg" xmlns:xlink="http://www.w3.org/1999/xlink" version="1.1">
<metadata>
Created by FontForge 20170910 at Wed Aug  2 20:11:03 2017
 By Jimmy Wärting
Copyright \(c\) 2017 by Lewis MacDonald. All rights reserved.
</metadata>
<defs>
<font id="Chromatica-Light" horiz-adv-x="509" >
  <font-face 
    font-family="Chromatica Light"
    font-weight="400"
    font-stretch="normal"
    units-per-em="1000"
    panose-1="0 0 5 0 0 0 0 0 0 0"
    ascent="800"
    descent="-200"
    x-height="476"
    cap-height="700"
    bbox="-61 -270 1087 830"
    underline-thickness="47"
    underline-position="-100"
    stemh="48"
    stemv="48"
    unicode-range="U+0020-2212"
  />
<missing-glyph horiz-adv-x="743" 
d="M585 700h48v-700h-48v70h-427v-70h-48v700h48v-70h427v70zM158 117h427v466h-427v-466z" />
    <glyph glyph-name=".notdef" horiz-adv-x="743" 
d="M585 700h48v-700h-48v70h-427v-70h-48v700h48v-70h427v70zM158 117h427v466h-427v-466z" />
    <glyph glyph-name="A" unicode="A" horiz-adv-x="745" 
d="M649 0l-104 240h-346l-103 -240h-52l306 706h45l306 -706h-52zM220 288h305l-153 354z" />
    <glyph glyph-name="B" unicode="B" horiz-adv-x="621" 
d="M426 366c80 -24 128 -87 128 -177c0 -116 -81 -189 -208 -189h-236v700h220c119 0 193 -69 193 -177c0 -75 -36 -130 -97 -157zM158 653v-268h172c89 0 145 52 145 135c0 82 -56 133 -145 133h-172zM346 47c97 0 160 57 160 146s-63 145 -160 145h-188v-291h188z" />
    <glyph glyph-name="C" unicode="C" horiz-adv-x="750" 
d="M656 559c-55 64 -139 102 -235 102c-177 0 -309 -134 -309 -311s132 -311 308 -311c104 0 193 45 248 118l36 -34c-65 -82 -166 -133 -283 -133c-204 0 -358 156 -358 360s154 360 358 360c109 0 202 -44 268 -114z" />
    <glyph glyph-name="D" unicode="D" horiz-adv-x="731" 
d="M110 0v700h214c197 0 344 -150 344 -350s-147 -350 -344 -350h-214zM158 48h170c166 0 292 129 292 302s-126 302 -292 302h-170v-604z" />
    <glyph glyph-name="E" unicode="E" horiz-adv-x="537" 
d="M110 0v700h357v-48h-309v-261h300v-48h-300v-295h309v-48h-357z" />
    <glyph glyph-name="F" unicode="F" horiz-adv-x="522" 
d="M110 0v700h357v-48h-309v-275h301v-48h-301v-329h-48z" />
    <glyph glyph-name="G" unicode="G" horiz-adv-x="777" 
d="M461 390h243v-268c-65 -81 -166 -132 -283 -132c-204 0 -358 156 -358 360s154 360 358 360c109 0 202 -44 268 -114l-33 -37c-55 64 -139 102 -235 102c-177 0 -309 -134 -309 -311s132 -311 308 -311c97 0 181 39 236 103v200h-195v48z" />
    <glyph glyph-name="H" unicode="H" horiz-adv-x="743" 
d="M633 700v-700h-48v342h-427v-342h-48v700h48v-310h427v310h48z" />
    <glyph glyph-name="I" unicode="I" horiz-adv-x="269" 
d="M158 700v-700h-48v700h48z" />
    <glyph glyph-name="J" unicode="J" horiz-adv-x="580" 
d="M483 700v-480c0 -137 -89 -230 -217 -230c-129 0 -217 92 -219 226l48 4c2 -108 71 -182 170 -182c101 0 170 75 170 182v480h48z" />
    <glyph glyph-name="K" unicode="K" horiz-adv-x="614" 
d="M567 0h-57l-250 404l-102 -104v-300h-48v700h49v-333l324 333h67l-255 -260z" />
    <glyph glyph-name="L" unicode="L" horiz-adv-x="531" 
d="M158 700v-652h331v-48h-379v700h48z" />
    <glyph glyph-name="M" unicode="M" horiz-adv-x="855" 
d="M686 700h59v-700h-48v615l-244 -555h-50l-245 555v-615h-48v700h59l259 -586z" />
    <glyph glyph-name="M.001" horiz-adv-x="827" 
d="M716 706v-706h-48v628l-254 -268l-256 267v-627h-48v706h35l269 -277l268 277h34z" />
    <glyph glyph-name="N" unicode="N" horiz-adv-x="758" 
d="M648 0h-41l-449 610v-610h-48v700h40l449 -612v612h49v-700z" />
    <glyph glyph-name="O" unicode="O" horiz-adv-x="847" 
d="M424 -10c-206 0 -360 154 -360 360s155 360 360 360s360 -154 360 -360s-155 -360 -360 -360zM424 39c177 0 311 133 311 311s-133 311 -311 311s-311 -133 -311 -311s133 -311 311 -311z" />
    <glyph glyph-name="P" unicode="P" horiz-adv-x="605" 
d="M110 0v700h228c132 0 214 -78 214 -202c0 -126 -82 -204 -214 -204h-180v-294h-48zM158 343h179c105 0 166 55 166 155c0 98 -61 154 -166 154h-179v-309z" />
    <glyph glyph-name="Q" unicode="Q" horiz-adv-x="846" 
d="M783 350c0 -185 -124 -327 -298 -355l29 -159l-48 -8l-29 162h-14c-206 0 -360 154 -360 360s155 360 360 360s360 -154 360 -360zM423 39c177 0 311 133 311 311s-133 311 -311 311s-311 -133 -311 -311s133 -311 311 -311z" />
    <glyph glyph-name="R" unicode="R" horiz-adv-x="630" 
d="M569 0h-57l-180 296h-174v-296h-48v700h228c132 0 214 -77 214 -202c0 -109 -62 -181 -165 -198zM158 652v-309h180c104 0 165 56 165 155s-61 154 -165 154h-180z" />
    <glyph glyph-name="S" unicode="S" horiz-adv-x="524" 
d="M262 710c63 0 129 -28 180 -83l-32 -34c-40 44 -94 69 -147 69c-73 0 -128 -49 -128 -114c0 -49 30 -83 93 -120l123 -72c81 -48 117 -100 117 -172c0 -112 -90 -194 -215 -194c-77 0 -156 32 -205 96l35 33c43 -55 108 -81 171 -81c95 0 165 62 165 146
c0 54 -28 93 -92 130l-125 73c-78 45 -116 92 -116 158c0 95 75 165 176 165z" />
    <glyph glyph-name="T" unicode="T" horiz-adv-x="542" 
d="M500 700v-48h-205v-652h-48v652h-205v48h458z" />
    <glyph glyph-name="U" unicode="U" horiz-adv-x="737" 
d="M368 -10c-170 0 -274 105 -274 275v435h48v-435c0 -139 88 -227 227 -227c138 0 226 88 226 227v435h48v-435c0 -169 -105 -275 -275 -275z" />
    <glyph glyph-name="V" unicode="V" horiz-adv-x="684" 
d="M326 0l-281 700h53l244 -616l245 616h53l-282 -700h-32z" />
    <glyph glyph-name="W" unicode="W" horiz-adv-x="914" 
d="M237 0l-186 700h50l157 -603l182 564h36l179 -564l159 603h49l-186 -700h-35l-185 564l-185 -564h-35z" />
    <glyph glyph-name="X" unicode="X" horiz-adv-x="626" 
d="M52 0l232 353l-229 347h57l201 -304l200 304h57l-229 -347l233 -353h-57l-204 309l-204 -309h-57z" />
    <glyph glyph-name="Y" unicode="Y" horiz-adv-x="595" 
d="M555 700l-233 -354v-346h-48v346l-234 354h58l199 -305l200 305h58z" />
    <glyph glyph-name="Z" unicode="Z" horiz-adv-x="540" 
d="M136 49h350v-49h-432l339 651h-330v49h412z" />
    <glyph glyph-name="a" unicode="a" horiz-adv-x="620" 
d="M477 476h48v-476h-48v72c-43 -53 -104 -82 -176 -82c-140 0 -246 107 -246 249c0 141 105 247 244 247c77 0 137 -31 178 -80v70zM303 38c77 0 141 40 174 101v200c-35 64 -100 99 -174 99c-114 0 -200 -85 -200 -199s87 -201 200 -201z" />
    <glyph glyph-name="b" unicode="b" horiz-adv-x="628" 
d="M329 486c139 0 244 -106 244 -247c0 -142 -106 -249 -246 -249c-72 0 -133 29 -176 82v-72h-48v750h48v-344c41 49 101 80 178 80zM325 38c113 0 200 87 200 201s-86 199 -200 199c-74 0 -139 -35 -174 -99v-200c33 -61 97 -101 174 -101z" />
    <glyph glyph-name="c" unicode="c" horiz-adv-x="547" 
d="M461 370c-36 42 -90 68 -155 68c-115 0 -202 -86 -202 -200s86 -200 201 -200c71 0 130 32 166 78l35 -32c-45 -57 -116 -94 -200 -94c-143 0 -251 107 -251 248s108 248 252 248c75 0 143 -31 187 -80z" />
    <glyph glyph-name="d" unicode="d" horiz-adv-x="628" 
d="M477 750h48v-750h-48v72c-43 -53 -104 -82 -176 -82c-140 0 -246 107 -246 249c0 141 105 247 244 247c77 0 137 -31 178 -80v344zM303 38c77 0 141 40 174 101v200c-35 64 -100 99 -174 99c-114 0 -200 -85 -200 -199s87 -201 200 -201z" />
    <glyph glyph-name="e" unicode="e" horiz-adv-x="583" 
d="M530 239v-5h-428c3 -111 89 -196 206 -196c65 0 118 25 176 82l34 -37c-68 -66 -134 -93 -209 -93c-147 0 -254 107 -254 249c0 141 107 247 245 247c134 0 230 -101 230 -247zM299 440c-98 0 -176 -67 -193 -161h374c-15 97 -85 161 -181 161z" />
    <glyph glyph-name="f" unicode="f" horiz-adv-x="380" 
d="M176 476h168v-48h-168v-428h-48v428h-89v48h89v123c0 96 57 161 146 161c26 0 49 -6 71 -17l-17 -44c-13 8 -34 13 -54 13c-57 0 -98 -45 -98 -113v-123z" />
    <glyph glyph-name="g" unicode="g" horiz-adv-x="632" 
d="M482 476h48v-525c0 -131 -97 -221 -224 -221c-125 0 -219 87 -230 202l48 11c11 -91 81 -165 183 -165c99 0 175 70 175 173v119c-43 -45 -103 -71 -172 -71c-141 0 -246 106 -246 244c0 139 104 243 245 243c72 0 132 -29 173 -70v60zM313 47c72 0 134 35 169 90v212
c-37 57 -101 89 -170 89c-114 0 -200 -83 -200 -194c0 -112 87 -197 201 -197z" />
    <glyph glyph-name="h" unicode="h" horiz-adv-x="578" 
d="M325 486c105 0 171 -66 171 -184v-302h-48v297c0 93 -48 141 -129 141c-63 0 -132 -32 -168 -92v-346h-48v750h48v-343c43 54 108 79 174 79z" />
    <glyph glyph-name="i" unicode="i" horiz-adv-x="252" 
d="M123 717c27 0 46 -18 46 -45s-19 -46 -46 -46c-26 0 -45 19 -45 46s19 45 45 45zM102 0v476h48v-476h-48z" />
    <glyph glyph-name="j" unicode="j" horiz-adv-x="260" 
d="M129 717c27 0 46 -18 46 -45s-19 -46 -46 -46c-26 0 -45 19 -45 46s19 45 45 45zM108 476h48v-524c0 -96 -57 -161 -146 -161c-26 0 -49 6 -71 17l17 44c13 -8 34 -13 54 -13c57 0 98 45 98 113v524z" />
    <glyph glyph-name="k" unicode="k" horiz-adv-x="536" 
d="M496 0h-56l-171 272l-118 -117v-155h-48v750h48v-533l259 259h65l-171 -169z" />
    <glyph glyph-name="l" unicode="l" horiz-adv-x="253" 
d="M103 0v750h48v-750h-48z" />
    <glyph glyph-name="m" unicode="m" horiz-adv-x="830" 
d="M591 486c95 0 156 -66 156 -184v-302h-48v292c0 93 -40 146 -111 146c-59 0 -115 -36 -146 -95c2 -13 3 -26 3 -41v-302h-48v292c0 93 -41 146 -111 146c-57 0 -113 -34 -143 -90v-348h-48v476h48v-65c37 46 94 75 154 75s106 -30 130 -85c38 53 99 85 164 85z" />
    <glyph glyph-name="n" unicode="n" horiz-adv-x="570" 
d="M317 486c105 0 171 -66 171 -184v-302h-48v297c0 93 -48 141 -129 141c-63 0 -132 -32 -168 -92v-346h-48v476h48v-69c43 54 108 79 174 79z" />
    <glyph glyph-name="o" unicode="o" horiz-adv-x="604" 
d="M303 486c140 0 246 -106 246 -247c0 -142 -106 -249 -246 -249c-142 0 -248 107 -248 249c0 141 106 247 248 247zM303 438c-115 0 -200 -85 -200 -199s85 -201 200 -201c114 0 199 87 199 201s-85 199 -199 199z" />
    <glyph glyph-name="p" unicode="p" horiz-adv-x="628" 
d="M329 486c139 0 244 -106 244 -247c0 -142 -106 -249 -246 -249c-72 0 -133 29 -176 82v-332h-48v736h48v-70c41 49 101 80 178 80zM325 38c113 0 200 87 200 201s-86 199 -200 199c-74 0 -139 -35 -174 -99v-200c33 -61 97 -101 174 -101z" />
    <glyph glyph-name="q" unicode="q" horiz-adv-x="628" 
d="M476 476h48v-736h-48v332c-43 -53 -104 -82 -176 -82c-140 0 -246 107 -246 249c0 141 105 247 244 247c77 0 137 -31 178 -80v70zM302 38c77 0 141 40 174 101v200c-35 64 -100 99 -174 99c-114 0 -200 -85 -200 -199s87 -201 200 -201z" />
    <glyph glyph-name="r" unicode="r" horiz-adv-x="371" 
d="M143 376c40 68 116 110 192 110v-53c-83 0 -157 -49 -192 -123v-310h-48v476h48v-100z" />
    <glyph glyph-name="s" unicode="s" horiz-adv-x="408" 
d="M199 -10c-62 0 -117 25 -155 69l35 33c30 -35 75 -55 121 -55c62 0 108 38 108 91c0 31 -15 52 -51 72l-100 55c-59 31 -85 66 -85 113c0 67 55 118 132 118c49 0 98 -21 133 -58l-32 -34c-28 29 -66 46 -101 46c-49 0 -84 -31 -84 -71c0 -29 18 -51 59 -73l100 -54
c54 -28 77 -63 77 -114c0 -80 -67 -138 -157 -138z" />
    <glyph glyph-name="t" unicode="t" horiz-adv-x="486" 
d="M405 96l34 -36c-53 -50 -95 -70 -148 -70c-91 0 -150 57 -150 163v275h-105v48h105v175h48v-175h246v-48h-246v-275c0 -77 40 -115 100 -115c45 0 77 21 116 58z" />
    <glyph glyph-name="u" unicode="u" horiz-adv-x="570" 
d="M427 476h48v-476h-48v69c-43 -54 -108 -79 -174 -79c-105 0 -171 66 -171 184v302h48v-297c0 -93 48 -141 129 -141c63 0 132 32 168 92v346z" />
    <glyph glyph-name="v" unicode="v" horiz-adv-x="547" 
d="M456 476h53l-212 -476h-46l-213 476h52l183 -413z" />
    <glyph glyph-name="w" unicode="w" horiz-adv-x="763" 
d="M667 476h50l-137 -476h-55l-143 392l-144 -392h-55l-137 476h55l115 -411l143 401h48l144 -401z" />
    <glyph glyph-name="x" unicode="x" horiz-adv-x="506" 
d="M42 0l183 250l-166 226h61l134 -188l135 188h58l-164 -227l180 -249h-59l-150 209l-151 -209h-61z" />
    <glyph glyph-name="y" unicode="y" horiz-adv-x="524" 
d="M435 476h53l-380 -736h-53l179 347l-198 389h58l168 -334z" />
    <glyph glyph-name="z" unicode="z" horiz-adv-x="486" 
d="M139 48h299v-48h-387l288 429l-284 -1v48h372z" />
    <glyph glyph-name="zero" unicode="0" horiz-adv-x="664" 
d="M332 -10c-154 0 -250 139 -250 360s96 360 250 360c153 0 250 -139 250 -360s-97 -360 -250 -360zM332 38c124 0 201 120 201 312s-77 312 -201 312c-123 0 -201 -120 -201 -312s78 -312 201 -312z" />
    <glyph glyph-name="one" unicode="1" horiz-adv-x="401" 
d="M280 700v-700h-48v652h-178v48h226z" />
    <glyph glyph-name="two" unicode="2" horiz-adv-x="574" 
d="M63 0l302 353c51 60 75 110 75 164c0 86 -62 145 -148 145c-99 0 -160 -76 -159 -179l-49 3c0 132 83 224 208 224c116 0 197 -79 197 -192c0 -70 -33 -130 -88 -194l-237 -275h332l1 -49h-434z" />
    <glyph glyph-name="three" unicode="3" horiz-adv-x="586" 
d="M376 365c80 -28 128 -90 128 -175c0 -114 -90 -200 -217 -200c-128 0 -216 86 -216 220l49 1c-1 -105 65 -173 166 -173c100 0 169 65 169 154c0 88 -66 149 -169 149h-18v47h18c94 0 154 55 154 134c0 81 -63 140 -153 140c-87 0 -153 -56 -152 -157l-49 1
c0 124 82 204 200 204c119 0 202 -79 202 -186c0 -74 -41 -131 -112 -159z" />
    <glyph glyph-name="four" unicode="4" horiz-adv-x="649" 
d="M596 326v-48h-211v-278h-48v278h-275l113 422h48l-99 -374h213v232h48v-232h211z" />
    <glyph glyph-name="five" unicode="5" horiz-adv-x="607" 
d="M298 440c140 0 238 -93 238 -224c0 -129 -98 -226 -232 -226c-129 0 -222 91 -223 221l48 4c1 -105 74 -177 177 -177c105 0 181 76 181 177c0 105 -79 177 -190 177c-57 0 -109 -19 -149 -54l-38 25l21 337h360v-48h-315l-18 -251c39 26 87 39 140 39z" />
    <glyph glyph-name="six" unicode="6" horiz-adv-x="581" 
d="M295 435c123 0 221 -96 221 -221c0 -128 -97 -224 -226 -224c-127 0 -222 94 -222 216c0 54 18 108 64 187l183 313l43 -20l-159 -273c30 16 65 22 96 22zM289 38c102 0 178 75 178 175c0 101 -75 175 -175 175s-176 -77 -176 -178c0 -100 73 -172 173 -172z" />
    <glyph glyph-name="seven" unicode="7" horiz-adv-x="559" 
d="M502 700l-250 -700h-51l233 652h-380v48h448z" />
    <glyph glyph-name="eight" unicode="8" horiz-adv-x="614" 
d="M406 367c78 -30 129 -95 129 -177c0 -112 -98 -200 -228 -200c-131 0 -228 88 -228 200c0 82 51 147 129 177c-66 29 -109 88 -109 160c0 104 88 183 208 183s208 -79 208 -183c0 -72 -43 -131 -109 -160zM147 525c0 -78 68 -137 160 -137s160 59 160 137
c0 79 -68 138 -160 138s-160 -59 -160 -138zM307 37c103 0 179 66 179 153s-76 152 -179 152s-179 -65 -179 -152s76 -153 179 -153z" />
    <glyph glyph-name="nine" unicode="9" horiz-adv-x="581" 
d="M291 710c127 0 222 -94 222 -216c0 -54 -18 -108 -64 -187l-183 -313l-43 20l159 273c-30 -16 -65 -22 -96 -22c-123 0 -221 96 -221 221c0 128 97 224 226 224zM289 312c100 0 176 77 176 178c0 100 -73 172 -173 172c-102 0 -178 -75 -178 -175
c0 -101 75 -175 175 -175z" />
    <glyph glyph-name="asterisk" unicode="*" horiz-adv-x="547" 
d="M463 544l-153 -48l97 -129l-41 -29l-93 133l-93 -133l-41 30l97 128l-153 47l15 48l153 -53l-3 162h50l-3 -161l153 52z" />
    <glyph glyph-name="backslash" unicode="\" horiz-adv-x="422" 
d="M389 0h-52l-305 700h52z" />
    <glyph glyph-name="periodcentered" unicode="&#xb7;" horiz-adv-x="294" 
d="M145 347c27 0 46 -18 46 -45s-19 -46 -46 -46c-26 0 -45 19 -45 46s19 45 45 45z" />
    <glyph glyph-name="bullet" unicode="&#x2022;" horiz-adv-x="506" 
d="M253 454c84 0 154 -69 154 -152c0 -85 -70 -154 -154 -154c-85 0 -154 69 -154 154c0 83 69 152 154 152z" />
    <glyph glyph-name="colon" unicode=":" horiz-adv-x="327" 
d="M163 381c27 0 46 -18 46 -45s-19 -46 -46 -46c-26 0 -45 19 -45 46s19 45 45 45zM163 81c27 0 46 -18 46 -45s-19 -46 -46 -46c-26 0 -45 19 -45 46s19 45 45 45z" />
    <glyph glyph-name="comma" unicode="," horiz-adv-x="313" 
d="M161 81c26 0 49 -18 49 -57c0 -44 -27 -93 -74 -143l-28 24c28 30 48 64 56 95c-21 -10 -49 7 -49 37c0 25 19 44 46 44z" />
    <glyph glyph-name="exclam" unicode="!" horiz-adv-x="338" 
d="M194 700v-441h-49v441h49zM167 81c27 0 46 -18 46 -45s-19 -46 -46 -46c-26 0 -45 19 -45 46s19 45 45 45z" />
    <glyph glyph-name="numbersign" unicode="#" horiz-adv-x="883" 
d="M796 465h-188l-8 -230h188l-2 -46h-188l-6 -189h-47l6 189h-232l-6 -189h-47l6 189h-186l2 46h186l8 230h-186l1 47h187l6 188h47l-6 -188h232l6 188h47l-6 -188h187zM553 235l8 230h-232l-8 -230h232z" />
    <glyph glyph-name="period" unicode="." horiz-adv-x="295" 
d="M147 81c27 0 46 -18 46 -45s-19 -46 -46 -46c-26 0 -45 19 -45 46s19 45 45 45z" />
    <glyph glyph-name="question" unicode="?" horiz-adv-x="465" 
d="M224 710c93 0 160 -58 160 -141c0 -74 -53 -136 -144 -162v-148h-49v183c84 14 144 62 144 125c0 55 -46 95 -112 95c-48 0 -92 -21 -120 -55l-32 37c35 41 91 66 153 66zM215 81c27 0 46 -18 46 -45s-19 -46 -46 -46c-26 0 -45 19 -45 46s19 45 45 45z" />
    <glyph glyph-name="quotedbl" unicode="&#x22;" horiz-adv-x="439" 
d="M175 700l-3 -180h-45l-3 180h51zM315 700l-3 -180h-45l-3 180h51z" />
    <glyph glyph-name="quotesingle" unicode="'" horiz-adv-x="299" 
d="M175 700l-3 -180h-45l-3 180h51z" />
    <glyph glyph-name="semicolon" unicode=";" horiz-adv-x="337" 
d="M170 290c-26 0 -45 19 -45 46s19 45 45 45c27 0 46 -18 46 -45s-19 -46 -46 -46zM172 81c26 0 49 -18 49 -57c0 -44 -27 -93 -74 -143l-28 24c28 30 48 64 56 95c-21 -10 -49 7 -49 37c0 25 19 44 46 44z" />
    <glyph glyph-name="slash" unicode="/" horiz-adv-x="422" 
d="M33 0l305 700h52l-305 -700h-52z" />
    <glyph glyph-name="underscore" unicode="_" horiz-adv-x="684" 
d="M572 -77v-48h-460v48h460z" />
    <glyph glyph-name="braceleft" unicode="{" horiz-adv-x="435" 
d="M121 331c62 -11 95 -66 73 -137l-22 -76c-20 -68 16 -118 91 -118h107v-48h-108c-111 0 -167 75 -137 178l20 71c18 61 -4 89 -72 101v84c69 9 91 38 72 101l-21 72c-30 101 26 176 138 176h108v-48h-107c-76 0 -112 -50 -91 -117l24 -78c20 -66 -8 -124 -75 -133v-28z
" />
    <glyph glyph-name="braceright" unicode="}" horiz-adv-x="435" 
d="M314 331v28c-67 9 -95 67 -75 133l24 78c21 67 -15 117 -91 117h-107v48h108c112 0 168 -75 138 -176l-21 -72c-19 -63 3 -92 72 -101v-84c-68 -12 -90 -40 -72 -101l20 -71c30 -103 -26 -178 -137 -178h-108v48h107c75 0 111 50 91 118l-22 76c-22 71 11 126 73 137z
" />
    <glyph glyph-name="bracketleft" unicode="[" horiz-adv-x="427" 
d="M362 688h-204v-688h204v-48h-252v783h252v-47z" />
    <glyph glyph-name="bracketright" unicode="]" horiz-adv-x="427" 
d="M317 735v-783h-252v48h204v688h-204v47h252z" />
    <glyph glyph-name="parenleft" unicode="(" horiz-adv-x="427" 
d="M366 -4l-16 -45c-174 67 -276 211 -276 393s102 326 276 393l16 -45c-154 -60 -243 -187 -243 -348s89 -289 243 -348z" />
    <glyph glyph-name="parenright" unicode=")" horiz-adv-x="427" 
d="M61 -4c154 59 243 187 243 348s-89 288 -243 348l16 45c174 -67 276 -211 276 -393s-102 -326 -276 -393z" />
    <glyph glyph-name="emdash" unicode="&#x2014;" horiz-adv-x="660" 
d="M593 325v-48h-525v48h525z" />
    <glyph glyph-name="endash" unicode="&#x2013;" 
d="M442 325v-48h-374v48h374z" />
    <glyph glyph-name="hyphen" unicode="-" horiz-adv-x="426" 
d="M358 325v-48h-290v48h290z" />
    <glyph glyph-name="quotedblleft" unicode="&#x201c;" horiz-adv-x="405" 
d="M154 710l28 -24c-28 -30 -48 -64 -56 -95c21 10 49 -7 49 -37c0 -25 -19 -44 -46 -44c-26 0 -49 18 -49 57c0 44 27 93 74 143zM264 591c21 10 49 -7 49 -37c0 -25 -19 -44 -46 -44c-26 0 -49 18 -49 57c0 44 27 93 74 143l28 -24c-28 -30 -48 -64 -56 -95z" />
    <glyph glyph-name="quotedblright" unicode="&#x201d;" horiz-adv-x="405" 
d="M138 710c26 0 49 -18 49 -57c0 -44 -27 -93 -74 -143l-28 24c28 30 48 64 56 95c-21 -10 -49 7 -49 37c0 25 19 44 46 44zM276 710c26 0 49 -18 49 -57c0 -44 -27 -93 -74 -143l-28 24c28 30 48 64 56 95c-21 -10 -49 7 -49 37c0 25 19 44 46 44z" />
    <glyph glyph-name="quoteleft" unicode="&#x2018;" horiz-adv-x="268" 
d="M126 591c21 10 49 -7 49 -37c0 -25 -19 -44 -46 -44c-26 0 -49 18 -49 57c0 44 27 93 74 143l28 -24c-28 -30 -48 -64 -56 -95z" />
    <glyph glyph-name="quoteright" unicode="&#x2019;" horiz-adv-x="268" 
d="M138 710c26 0 49 -18 49 -57c0 -44 -27 -93 -74 -143l-28 24c28 30 48 64 56 95c-21 -10 -49 7 -49 37c0 25 19 44 46 44z" />
    <glyph glyph-name="space" unicode=" " horiz-adv-x="356" 
 />
    <glyph glyph-name="cent" unicode="&#xa2;" horiz-adv-x="574" 
d="M518 84c-41 -52 -104 -88 -179 -93l1 -121h-48l1 121c-130 12 -226 114 -226 247c0 132 95 235 226 247l-1 121h48l-1 -121c67 -5 127 -34 167 -79l-33 -36c-36 42 -90 68 -155 68c-115 0 -202 -86 -202 -200s86 -200 201 -200c71 0 130 32 166 78z" />
    <glyph glyph-name="dollar" unicode="$" horiz-adv-x="536" 
d="M475 184c0 -103 -75 -180 -184 -192v-122h-48l1 120c-72 5 -143 36 -189 96l35 33c43 -55 108 -81 171 -81c95 0 165 62 165 146c0 54 -28 93 -92 130l-125 73c-78 45 -116 92 -116 158c0 87 63 153 151 164l-1 121h48v-121c56 -6 113 -33 158 -82l-32 -34
c-40 44 -94 69 -147 69c-73 0 -128 -49 -128 -114c0 -49 30 -83 93 -120l123 -72c81 -48 117 -100 117 -172z" />
    <glyph glyph-name="Euro" unicode="&#x20ac;" horiz-adv-x="811" 
d="M729 157l36 -34c-65 -82 -166 -133 -283 -133c-173 0 -310 112 -348 270h-70v43h63c-2 15 -3 31 -3 47s1 32 3 47h-63v43h70c38 158 175 270 348 270c109 0 202 -44 268 -114l-33 -37c-55 64 -139 102 -235 102c-145 0 -261 -91 -297 -221h378v-43h-387
c-2 -15 -3 -31 -3 -47s1 -32 3 -47h329v-43h-320c36 -130 151 -221 296 -221c104 0 193 45 248 118z" />
    <glyph glyph-name="sterling" unicode="&#xa3;" horiz-adv-x="641" 
d="M155 48h417v-48h-468l33 294h-72v46h77l19 165c13 122 88 205 203 205c117 0 200 -85 202 -209l-48 -4c-2 98 -65 165 -155 165s-143 -66 -154 -157l-19 -165h264v-46h-270z" />
    <glyph glyph-name="yen" unicode="&#xa5;" horiz-adv-x="633" 
d="M576 700l-220 -334h160v-43h-173v-111h173v-44h-173v-168h-48v168h-188v44h188v111h-188v43h175l-221 334h58l199 -305l200 305h58z" />
    <glyph glyph-name="plus" unicode="+" 
d="M442 325v-48h-160v-162h-48v162h-166v48h166v164h48v-164h160z" />
    <glyph glyph-name="minus" unicode="&#x2212;" 
d="M442 325v-48h-374v48h374z" />
    <glyph glyph-name="multiply" unicode="&#xd7;" horiz-adv-x="446" 
d="M373 414l-114 -113l113 -113l-34 -34l-113 113l-117 -117l-34 34l117 117l-117 118l34 34l118 -118l113 113z" />
    <glyph glyph-name="divide" unicode="&#xf7;" 
d="M256 498c27 0 46 -18 46 -45s-19 -46 -46 -46c-26 0 -45 19 -45 46s19 45 45 45zM442 325v-48h-374v48h374zM256 195c27 0 46 -18 46 -45s-19 -46 -46 -46c-26 0 -45 19 -45 46s19 45 45 45z" />
    <glyph glyph-name="equal" unicode="=" 
d="M442 401v-48h-374v48h374zM442 249v-48h-374v48h374z" />
    <glyph glyph-name="greater" unicode="&#x3e;" horiz-adv-x="520" 
d="M85 493l374 -165v-52l-374 -165v56l320 135l-320 136v55z" />
    <glyph glyph-name="less" unicode="&#x3c;" horiz-adv-x="520" 
d="M435 493v-55l-320 -136l320 -135v-56l-374 165v52z" />
    <glyph glyph-name="percent" unicode="%" horiz-adv-x="857" 
d="M223 386c-92 0 -162 69 -162 161c0 93 70 163 162 163s163 -70 163 -163c0 -92 -71 -161 -163 -161zM152 0l498 700h55l-499 -700h-54zM222 431c67 0 117 50 117 116c0 67 -50 117 -117 117c-66 0 -116 -50 -116 -117c0 -66 50 -116 116 -116zM633 -10
c-92 0 -162 69 -162 162c0 92 70 162 162 162c93 0 163 -70 163 -162c0 -93 -70 -162 -163 -162zM632 36c68 0 117 49 117 116c0 66 -49 117 -117 117c-66 0 -115 -51 -115 -117c0 -67 49 -116 115 -116z" />
    <glyph glyph-name="at" unicode="@" horiz-adv-x="885" 
d="M569 477h46v-250c0 -47 29 -75 69 -75c59 0 93 63 93 155c0 188 -141 328 -330 328c-192 0 -337 -146 -337 -339c0 -198 141 -344 336 -344c77 0 156 23 242 84l23 -39c-83 -59 -167 -90 -263 -90c-223 0 -384 166 -384 389c0 219 164 384 384 384
c213 0 375 -158 375 -371c0 -120 -52 -202 -140 -202c-48 0 -85 24 -103 61c-33 -47 -85 -73 -146 -73c-111 0 -194 86 -194 197s83 195 193 195c58 0 105 -25 136 -63v53zM438 141c56 0 104 29 131 74v151c-26 49 -76 75 -132 75c-86 0 -150 -64 -150 -149
c0 -87 65 -151 151 -151z" />
    <glyph glyph-name="ampersand" unicode="&#x26;" horiz-adv-x="696" 
d="M641 311l-150 -177l124 -134h-61l-92 99c-62 -73 -133 -109 -210 -109c-106 0 -183 68 -183 170c0 74 41 126 109 170l42 27l-17 18c-66 71 -85 128 -85 176c0 91 69 159 161 159s160 -67 160 -157c0 -75 -46 -139 -127 -191l-21 -13l168 -181l149 176zM242 402l18 -20
l25 16c69 44 107 88 107 150c0 66 -49 117 -115 117c-63 0 -111 -49 -111 -114c0 -44 20 -89 76 -149zM429 132l1 1l-179 191l-48 -31c-46 -30 -86 -78 -86 -136c0 -68 57 -119 134 -119c58 0 124 29 178 94z" />
    <glyph glyph-name="bar" unicode="|" horiz-adv-x="268" 
d="M158 700v-900h-48v900h48z" />
    <glyph glyph-name="uni2116" unicode="&#x2116;" horiz-adv-x="1149" 
d="M921 380c-93 0 -165 70 -165 164c0 95 72 166 165 166c95 0 166 -71 166 -166c0 -94 -71 -164 -166 -164zM648 0h-41l-449 610v-610h-48v700h40l449 -612v612h49v-700zM921 427c68 0 118 50 118 117s-50 118 -118 118c-66 0 -116 -51 -116 -118s50 -117 116 -117z
M922 269c27 0 46 -18 46 -45s-19 -46 -46 -46c-26 0 -45 19 -45 46s19 45 45 45z" />
    </font>
</defs>
</svg>
